<svg width="100" height="100" xmlns="http://www.w3.org/2000/svg">
 <g>
  <title>Layer 1</title>
  <ellipse stroke-width="50" ry="24.88365" rx="25" id="svg_9" cy="49.88365" cx="50" stroke="#000" fill="#fff"/>
  <path transform="rotate(90 50 39.8837)" id="svg_10" d="m48.35084,50.37836l5.75197,-6.48201l-11.12116,0l-11.12114,0l0,-4.01267l0,-4.01268l10.99356,0c6.04645,0 10.99355,-0.20338 10.99355,-0.45196c0,-0.24857 -2.40707,-3.16548 -5.34904,-6.48201l-5.34906,-6.03006l4.94417,0l4.94415,0l7.55083,8.49648l7.55083,8.49648l-7.56531,8.48022l-7.56531,8.48022l-5.205,0l-5.20502,0l5.75199,-6.48201l0,0z" stroke="#000" fill="#fff"/>
  <path stroke="#000" stroke-width="0.75" id="svg_11" d="m28.62189,64.63134l42.79057,0l0,7.12594l-42.79057,0l0,-7.12594z" fill="#fff"/>
 </g>

</svg>