<svg width="54" height="54" viewBox="0 0 54 54" fill="none" xmlns="http://www.w3.org/2000/svg">
<rect x="3" y="3" width="48" height="48" rx="24" fill="black"/>
<path d="M31.4511 34.8197L30.7651 35.6582H30.7651L31.4511 34.8197ZM31.0132 34.4858L30.4947 35.4369L30.4947 35.4369L31.0132 34.4858ZM34.66 34.6597L33.894 33.8936L33.894 33.8936L34.66 34.6597ZM34.8201 31.4507L35.5861 30.6847L35.6243 30.7229L35.6585 30.7647L34.8201 31.4507ZM34.8201 31.4507L34.0541 32.2167L34.0158 32.1785L33.9816 32.1367L34.8201 31.4507ZM34.4862 31.0129L33.5351 31.5316L33.5351 31.5316L34.4862 31.0129ZM35.1315 29.4551L35.4373 30.4943L35.4373 30.4943L35.1315 29.4551ZM35.6771 29.3816L35.7849 30.4596H35.7849L35.6771 29.3816ZM35.6771 24.6171L35.7849 23.5391L35.7849 23.5391L35.6771 24.6171ZM35.1314 24.5436L35.4373 23.5044L35.4373 23.5044L35.1314 24.5436ZM34.4861 22.9858L33.535 22.4672L33.535 22.4672L34.4861 22.9858ZM34.82 22.548L33.9815 21.862L33.9815 21.862L34.82 22.548ZM34.66 19.339L35.426 18.573L35.426 18.573L34.66 19.339ZM31.451 19.179L30.765 18.3405L30.765 18.3405L31.451 19.179ZM31.0133 19.5128L30.4946 18.5617L30.4946 18.5617L31.0133 19.5128ZM29.4554 18.8675L30.4946 18.5617L30.4946 18.5617L29.4554 18.8675ZM29.3819 18.322L30.4569 18.1876L30.4586 18.2009L30.4599 18.2142L29.3819 18.322ZM29.3819 18.3219L28.307 18.4563L28.3053 18.443L28.304 18.4297L29.3819 18.3219ZM24.6174 18.3219L25.6954 18.4297L25.694 18.443L25.6924 18.4563L24.6174 18.3219ZM24.6174 18.322L23.5395 18.2142L23.5408 18.2009L23.5424 18.1876L24.6174 18.322ZM24.544 18.8675L25.5832 19.1733L25.5832 19.1733L24.544 18.8675ZM22.9861 19.5128L22.4674 20.464L22.4674 20.4639L22.9861 19.5128ZM22.5484 19.179L21.8624 20.0175L21.8545 20.011L21.8468 20.0044L22.5484 19.179ZM22.5484 19.179L23.2344 18.3405L23.2422 18.347L23.25 18.3535L22.5484 19.179ZM19.3394 19.339L18.5734 18.573L18.5734 18.573L19.3394 19.339ZM19.1793 22.548L18.3507 23.2458L18.3458 23.2399L18.3409 23.234L19.1793 22.548ZM19.1794 22.548L20.008 21.8502L20.013 21.8561L20.0178 21.862L19.1794 22.548ZM19.5132 22.9858L20.4644 22.4672L20.4644 22.4672L19.5132 22.9858ZM18.8679 24.5436L18.5621 23.5044L18.5621 23.5044L18.8679 24.5436ZM18.3223 24.6171L18.2145 23.5391V23.5391L18.3223 24.6171ZM18.3223 29.3816L18.2323 30.4612L18.2234 30.4605L18.2145 30.4596L18.3223 29.3816ZM18.3223 29.3816L18.4123 28.302L18.4212 28.3028L18.4301 28.3037L18.3223 29.3816ZM18.8679 29.4551L18.562 30.4943L18.562 30.4943L18.8679 29.4551ZM19.5132 31.0129L20.4643 31.5316L20.4643 31.5316L19.5132 31.0129ZM19.1793 31.4507L20.0177 32.1367L19.9835 32.1785L19.9453 32.2167L19.1793 31.4507ZM19.1793 31.4507L18.3408 30.7647L18.375 30.7229L18.4132 30.6847L19.1793 31.4507ZM19.3393 34.6597L20.1053 33.8936L20.1053 33.8936L19.3393 34.6597ZM22.5483 34.8197L23.2461 35.6484L23.2402 35.6533L23.2343 35.6582L22.5483 34.8197ZM22.5483 34.8197L21.8505 33.991L21.8564 33.9861L21.8623 33.9812L22.5483 34.8197ZM22.9861 34.4858L23.5047 35.4369L23.5047 35.4369L22.9861 34.4858ZM24.544 35.1311L23.5047 35.4369L23.5047 35.4369L24.544 35.1311ZM24.6174 35.6768L23.5395 35.7846V35.7846L24.6174 35.6768ZM29.3819 35.6768L30.4599 35.7846L30.4599 35.7846L29.3819 35.6768ZM29.4554 35.1311L30.4947 35.4369L30.4947 35.4369L29.4554 35.1311ZM30.7651 35.6582C30.6441 35.5592 30.5701 35.4988 30.515 35.4562C30.4564 35.4108 30.4606 35.4184 30.4947 35.4369L31.5318 33.5346C31.7345 33.6452 31.9534 33.831 32.1371 33.9813L30.7651 35.6582ZM35.4261 35.4257C34.1628 36.689 32.1478 36.7895 30.7651 35.6582L32.1371 33.9813C32.6583 34.4077 33.4178 34.3698 33.894 33.8936L35.4261 35.4257ZM35.6585 30.7647C36.7899 32.1474 36.6894 34.1624 35.4261 35.4257L33.894 33.8936C34.3702 33.4175 34.4081 32.6579 33.9816 32.1367L35.6585 30.7647ZM35.5861 30.6847L35.5861 30.6847L34.0541 32.2167L34.0541 32.2167L35.5861 30.6847ZM35.4373 30.4943C35.4187 30.4602 35.4112 30.4561 35.4565 30.5147C35.4992 30.5697 35.5595 30.6437 35.6585 30.7647L33.9816 32.1367C33.8314 31.953 33.6456 31.7342 33.5351 31.5316L35.4373 30.4943ZM35.4373 30.4943V30.4943L33.5351 31.5316C32.8739 30.319 33.5008 28.8057 34.8257 28.4158L35.4373 30.4943ZM35.7849 30.4596C35.6294 30.4751 35.5344 30.4847 35.4653 30.4935C35.3918 30.5028 35.4001 30.5053 35.4373 30.4943L34.8257 28.4158C35.0471 28.3506 35.3332 28.3273 35.5693 28.3037L35.7849 30.4596ZM38.9163 26.9993C38.9163 28.7859 37.5626 30.2818 35.7849 30.4596L35.5693 28.3037C36.2394 28.2366 36.7497 27.6728 36.7497 26.9993H38.9163ZM35.7849 23.5391C37.5626 23.7169 38.9163 25.2128 38.9163 26.9993H36.7497C36.7497 26.3259 36.2394 25.7621 35.5693 25.695L35.7849 23.5391ZM35.4373 23.5044C35.4 23.4934 35.3917 23.4958 35.4653 23.5052C35.5343 23.514 35.6293 23.5236 35.7849 23.5391L35.5693 25.695C35.3332 25.6714 35.047 25.6481 34.8256 25.5829L35.4373 23.5044ZM35.4373 23.5044H35.4373L34.8256 25.5829C33.5007 25.193 32.8738 23.6797 33.535 22.4672L35.4373 23.5044ZM35.6585 23.234C35.5595 23.355 35.4991 23.429 35.4565 23.484C35.4111 23.5426 35.4187 23.5385 35.4373 23.5044L33.535 22.4672C33.6455 22.2645 33.8313 22.0457 33.9815 21.862L35.6585 23.234ZM35.426 18.573C36.6893 19.8363 36.7898 21.8513 35.6585 23.234L33.9815 21.862C34.408 21.3408 34.3701 20.5812 33.8939 20.1051L35.426 18.573ZM30.765 18.3405C32.1477 17.2092 34.1627 17.3097 35.426 18.573L33.8939 20.1051C33.4177 19.6289 32.6582 19.591 32.137 20.0174L30.765 18.3405ZM30.4946 18.5617C30.4606 18.5803 30.4564 18.5879 30.515 18.5425C30.57 18.4999 30.644 18.4395 30.765 18.3405L32.137 20.0174C31.9534 20.1677 31.7346 20.3535 31.5319 20.464L30.4946 18.5617ZM30.4946 18.5617V18.5617L31.5319 20.464C30.3193 21.1251 28.806 20.4983 28.4161 19.1733L30.4946 18.5617ZM30.4599 18.2142C30.4754 18.3697 30.485 18.4647 30.4938 18.5337C30.5032 18.6072 30.5056 18.5989 30.4946 18.5617L28.4161 19.1733C28.3509 18.9519 28.3276 18.6658 28.304 18.4297L30.4599 18.2142ZM30.4569 18.1876L30.4569 18.1876L28.307 18.4563L28.307 18.4563L30.4569 18.1876ZM26.9997 15.0827C28.7862 15.0827 30.2821 16.4364 30.4599 18.2141L28.304 18.4297C28.237 17.7596 27.6731 17.2493 26.9997 17.2493V15.0827ZM23.5395 18.2141C23.7172 16.4364 25.2131 15.0827 26.9997 15.0827V17.2493C26.3262 17.2493 25.7624 17.7596 25.6954 18.4297L23.5395 18.2141ZM23.5424 18.1876L23.5424 18.1876L25.6924 18.4563L25.6924 18.4563L23.5424 18.1876ZM23.5047 18.5617C23.4937 18.5989 23.4962 18.6072 23.5055 18.5337C23.5143 18.4647 23.5239 18.3697 23.5395 18.2142L25.6954 18.4297C25.6718 18.6659 25.6484 18.9519 25.5832 19.1733L23.5047 18.5617ZM23.5047 18.5617L23.5047 18.5617L25.5832 19.1733C25.1934 20.4983 23.68 21.1251 22.4674 20.464L23.5047 18.5617ZM23.2344 18.3405C23.3554 18.4395 23.4293 18.4999 23.4843 18.5425C23.5429 18.5879 23.5388 18.5803 23.5047 18.5617L22.4674 20.4639C22.2648 20.3535 22.046 20.1677 21.8624 20.0175L23.2344 18.3405ZM23.25 18.3535L23.25 18.3536L21.8468 20.0044L21.8468 20.0044L23.25 18.3535ZM18.5734 18.573C19.8367 17.3097 21.8517 17.2092 23.2344 18.3405L21.8624 20.0174C21.3412 19.591 20.5816 19.6289 20.1054 20.1051L18.5734 18.573ZM18.3409 23.234C17.2096 21.8513 17.3101 19.8363 18.5734 18.573L20.1054 20.1051C19.6292 20.5812 19.5914 21.3408 20.0178 21.862L18.3409 23.234ZM18.3507 23.2458L18.3507 23.2458L20.008 21.8502L20.008 21.8502L18.3507 23.2458ZM18.5621 23.5044C18.5807 23.5385 18.5883 23.5426 18.5429 23.484C18.5003 23.429 18.4399 23.355 18.3409 23.234L20.0178 21.862C20.1681 22.0457 20.3539 22.2645 20.4644 22.4672L18.5621 23.5044ZM18.5621 23.5044V23.5044L20.4644 22.4672C21.1255 23.6797 20.4987 25.193 19.1738 25.5829L18.5621 23.5044ZM18.2145 23.5391C18.37 23.5236 18.465 23.514 18.5341 23.5052C18.6076 23.4958 18.5993 23.4934 18.5621 23.5044L19.1738 25.5829C18.9523 25.6481 18.6662 25.6714 18.4301 25.695L18.2145 23.5391ZM15.083 26.9993C15.083 25.2128 16.4368 23.7169 18.2145 23.5391L18.4301 25.695C17.76 25.7621 17.2497 26.3259 17.2497 26.9993H15.083ZM18.2145 30.4596C16.4368 30.2818 15.083 28.7859 15.083 26.9993H17.2497C17.2497 27.6728 17.76 28.2366 18.4301 28.3036L18.2145 30.4596ZM18.2323 30.4612L18.2323 30.4612L18.4122 28.302L18.4123 28.302L18.2323 30.4612ZM18.562 30.4943C18.5993 30.5053 18.6076 30.5028 18.534 30.4935C18.465 30.4847 18.37 30.4751 18.2145 30.4596L18.4301 28.3037C18.6662 28.3273 18.9522 28.3506 19.1737 28.4158L18.562 30.4943ZM18.562 30.4943L19.1737 28.4158C20.4986 28.8057 21.1254 30.319 20.4643 31.5316L18.562 30.4943ZM18.3408 30.7647C18.4398 30.6437 18.5002 30.5697 18.5428 30.5147C18.5882 30.4561 18.5806 30.4602 18.562 30.4943L20.4643 31.5316C20.3538 31.7342 20.168 31.953 20.0177 32.1367L18.3408 30.7647ZM18.4132 30.6847L18.4132 30.6847L19.9453 32.2167L19.9453 32.2167L18.4132 30.6847ZM18.5733 35.4257C17.31 34.1624 17.2095 32.1474 18.3408 30.7647L20.0177 32.1367C19.5913 32.6579 19.6292 33.4175 20.1053 33.8936L18.5733 35.4257ZM23.2343 35.6582C21.8516 36.7895 19.8366 36.689 18.5733 35.4257L20.1053 33.8936C20.5815 34.3698 21.3411 34.4077 21.8623 33.9813L23.2343 35.6582ZM23.2461 35.6483L23.2461 35.6484L21.8505 33.9911L21.8505 33.991L23.2461 35.6483ZM23.5047 35.4369C23.5388 35.4184 23.5429 35.4108 23.4843 35.4561C23.4293 35.4988 23.3553 35.5591 23.2343 35.6581L21.8623 33.9812C22.046 33.831 22.2648 33.6452 22.4675 33.5346L23.5047 35.4369ZM23.5047 35.4369H23.5047L22.4675 33.5346C23.68 32.8735 25.1933 33.5004 25.5832 34.8252L23.5047 35.4369ZM23.5395 35.7846C23.5239 35.629 23.5143 35.534 23.5055 35.4649C23.4962 35.3914 23.4937 35.3997 23.5047 35.4369L25.5832 34.8252C25.6484 35.0467 25.6718 35.3328 25.6954 35.569L23.5395 35.7846ZM26.9997 38.916C25.2131 38.916 23.7172 37.5623 23.5395 35.7846L25.6954 35.569C25.7624 36.2391 26.3262 36.7493 26.9997 36.7493V38.916ZM30.4599 35.7846C30.2821 37.5623 28.7862 38.916 26.9997 38.916V36.7493C27.6731 36.7493 28.237 36.2391 28.304 35.569L30.4599 35.7846ZM30.4947 35.4369C30.5056 35.3997 30.5032 35.3914 30.4938 35.4649C30.485 35.534 30.4754 35.629 30.4599 35.7846L28.304 35.569C28.3276 35.3328 28.351 35.0467 28.4161 34.8252L30.4947 35.4369ZM30.4947 35.4369H30.4947L28.4161 34.8252C28.8061 33.5004 30.3193 32.8735 31.5318 33.5346L30.4947 35.4369ZM24.8332 26.9997C24.8332 28.1963 25.8032 29.1663 26.9998 29.1663V31.333C24.6066 31.333 22.6665 29.3929 22.6665 26.9997H24.8332ZM26.9998 24.833C25.8032 24.833 24.8332 25.8031 24.8332 26.9997H22.6665C22.6665 24.6064 24.6066 22.6663 26.9998 22.6663V24.833ZM29.1665 26.9997C29.1665 25.8031 28.1965 24.833 26.9998 24.833V22.6663C29.3931 22.6663 31.3332 24.6064 31.3332 26.9997H29.1665ZM26.9998 29.1663C28.1965 29.1663 29.1665 28.1963 29.1665 26.9997H31.3332C31.3332 29.3929 29.3931 31.333 26.9998 31.333V29.1663Z" fill="white"/>
</svg>
