<svg width="54" height="54" viewBox="0 0 54 54" fill="none" xmlns="http://www.w3.org/2000/svg">
<path d="M51 27C51 13.7452 40.2548 3 27 3C13.7452 3 3 13.7452 3 27C3 40.2548 13.7452 51 27 51C40.2548 51 51 40.2548 51 27Z" fill="#E7EAED"/>
<path d="M26.9999 26.6002C26.3958 26.6002 25.9061 26.1105 25.9061 25.5065L25.9062 19.9902L25.2915 20.6048C24.8643 21.032 24.1718 21.032 23.7447 20.6048C23.3175 20.1777 23.3175 19.4852 23.7447 19.0581L26.2263 16.5764C26.3488 16.4539 26.4931 16.3666 26.6466 16.3143C26.7575 16.2766 26.8763 16.256 26.9999 16.256C27.3079 16.256 27.5861 16.3833 27.7849 16.5881L30.2548 19.0581C30.6819 19.4852 30.6819 20.1777 30.2548 20.6049C29.8276 21.032 29.1351 21.032 28.708 20.6049L28.0937 19.9905V25.5065C28.0937 26.1105 27.604 26.6002 26.9999 26.6002Z" fill="black"/>
<path d="M31.768 23.4069H33.6986C33.7414 23.4807 33.7902 23.6171 33.7902 23.8052V32.7581C33.7902 32.9463 33.7414 33.0826 33.6986 33.1565H20.3013C20.2585 33.0826 20.2097 32.9463 20.2097 32.7581V23.8053C20.2097 23.6171 20.2585 23.4807 20.3013 23.4069H22.2213C22.8254 23.4069 23.3151 22.9172 23.3151 22.3131C23.3151 21.7091 22.8254 21.2194 22.2213 21.2194H20.1685C19.4268 21.2194 18.8638 21.6472 18.5305 22.1197C18.1951 22.5952 18.0222 23.1945 18.0222 23.8053V32.7581C18.0222 33.3688 18.1951 33.9682 18.5305 34.4436C18.8638 34.9162 19.4268 35.344 20.1685 35.344H33.8314C34.5731 35.344 35.1361 34.9161 35.4694 34.4436C35.8048 33.9682 35.9777 33.3688 35.9777 32.7581V23.8052C35.9777 23.1945 35.8048 22.5951 35.4694 22.1197C35.1361 21.6472 34.5731 21.2194 33.8314 21.2194H31.7679C31.1639 21.2194 30.6742 21.7091 30.6742 22.3131C30.6742 22.9172 31.1639 23.4069 31.768 23.4069Z" fill="black"/>
</svg>
