<svg width="54" height="54" viewBox="0 0 54 54" fill="none" xmlns="http://www.w3.org/2000/svg">
<path d="M51 27C51 13.7452 40.2548 3 27 3C13.7452 3 3 13.7452 3 27C3 40.2548 13.7452 51 27 51C40.2548 51 51 40.2548 51 27Z" fill="black"/>
<path d="M27 26.6002C26.3959 26.6002 25.9062 26.1105 25.9062 25.5065L25.9063 19.9902L25.2916 20.6048C24.8644 21.032 24.1719 21.032 23.7448 20.6048C23.3176 20.1777 23.3176 19.4852 23.7448 19.0581L26.2264 16.5764C26.3489 16.4539 26.4932 16.3666 26.6467 16.3143C26.7576 16.2766 26.8764 16.256 27 16.256C27.308 16.256 27.5862 16.3833 27.785 16.5881L30.2549 19.0581C30.682 19.4852 30.682 20.1777 30.2549 20.6049C29.8277 21.032 29.1352 21.032 28.7081 20.6049L28.0938 19.9905V25.5065C28.0938 26.1105 27.6041 26.6002 27 26.6002Z" fill="white"/>
<path d="M31.7681 23.4069H33.6987C33.7415 23.4807 33.7903 23.6171 33.7903 23.8052V32.7581C33.7903 32.9463 33.7415 33.0826 33.6987 33.1565H20.3014C20.2586 33.0826 20.2098 32.9463 20.2098 32.7581V23.8053C20.2098 23.6171 20.2586 23.4807 20.3014 23.4069H22.2214C22.8255 23.4069 23.3152 22.9172 23.3152 22.3131C23.3152 21.7091 22.8255 21.2194 22.2214 21.2194H20.1686C19.4269 21.2194 18.8639 21.6472 18.5306 22.1197C18.1952 22.5952 18.0223 23.1945 18.0223 23.8053V32.7581C18.0223 33.3688 18.1952 33.9682 18.5306 34.4436C18.8639 34.9162 19.4269 35.344 20.1686 35.344H33.8315C34.5732 35.344 35.1362 34.9161 35.4695 34.4436C35.8049 33.9682 35.9778 33.3688 35.9778 32.7581V23.8052C35.9778 23.1945 35.8049 22.5951 35.4695 22.1197C35.1362 21.6472 34.5732 21.2194 33.8315 21.2194H31.768C31.164 21.2194 30.6743 21.7091 30.6743 22.3131C30.6743 22.9172 31.164 23.4069 31.7681 23.4069Z" fill="white"/>
</svg>
